<?xml version="1.0" encoding="UTF-8"?>
<svg xmlns="http://www.w3.org/2000/svg" width="1100" height="680" viewBox="0 0 1100 680" font-family="Arial, Helvetica, sans-serif">
  <defs>
    <marker id="arrow" markerWidth="10" markerHeight="10" refX="8" refY="3" orient="auto">
      <path d="M0,0 L8,3 L0,6 Z" fill="#891019"/>
    </marker>
  </defs>
  <style>
    .label { font-size: 12px; fill: #444; }
    .title { font-size: 14px; font-weight: bold; fill: #891019; }
    .subtitle { font-size: 12px; fill: #666; font-style: italic; }
    .row { fill: #f5f5f5; stroke: #ccc; stroke-width: 1.5; }
    .row-active { fill: #fde8e8; stroke: #891019; stroke-width: 2; }
    .row-fetched { fill: #e8f4ea; stroke: #3d7a4a; stroke-width: 1.5; }
    .row-pending { fill: #eee; stroke: #bbb; stroke-width: 1.5; }
    .sql-box { fill: #fafafa; stroke: #bbb; stroke-width: 1.5; }
    .panel-box { fill: #f9f9f9; stroke: #ccc; stroke-width: 1.5; }
    .access-box { fill: #fff8f8; stroke: #891019; stroke-width: 1.5; }
    .step-box { fill: #fafafa; stroke: #ddd; stroke-width: 1; }
    .sql { font-family: Menlo, Consolas, monospace; font-size: 11px; fill: #222; }
    .sql-sm { font-family: Menlo, Consolas, monospace; font-size: 10px; fill: #444; }
    .sql-kw { fill: #891019; font-weight: bold; }
    .highlight { fill: none; stroke: #891019; stroke-width: 2.5; stroke-dasharray: 8 4; }
    .note { font-size: 11px; fill: #555; }
    .note-bold { font-size: 11px; fill: #891019; font-weight: bold; }
    .scope-fill { fill: #fff5f5; stroke: none; }
    .contrast-no { font-size: 10px; fill: #777; }
    .contrast-yes { font-size: 10px; fill: #891019; font-weight: bold; }
    .step-num { font-size: 11px; fill: #fff; font-weight: bold; }
  </style>

  <!-- ========== Section 1: timeline ========== -->
  <text x="20" y="56" class="title">1. One declared result set - position moves along rows</text>
  <line x1="50" y1="136" x2="1060" y2="136" stroke="#999" stroke-width="2"/>
  <rect x="50" y="96" width="88" height="40" rx="4" class="row"/>
  <text x="94" y="121" text-anchor="middle" font-size="10" class="label">1-87</text>
  <rect x="152" y="96" width="88" height="40" rx="4" class="row-fetched"/>
  <text x="196" y="121" text-anchor="middle" font-size="10" class="label">88-205</text>
  <rect x="254" y="96" width="88" height="40" rx="4" class="row-active"/>
  <text x="298" y="121" text-anchor="middle" font-size="10" class="label">206-298</text>
  <rect x="356" y="96" width="88" height="40" rx="4" class="row"/>
  <text x="400" y="121" text-anchor="middle" font-size="10" class="label">299-427</text>
  <text x="486" y="121" text-anchor="middle" class="label">...</text>
  <rect x="528" y="96" width="88" height="40" rx="4" class="row"/>
  <text x="572" y="121" text-anchor="middle" font-size="10" class="label">1201-1348</text>
  <rect x="630" y="96" width="88" height="40" rx="4" class="row"/>
  <text x="674" y="121" text-anchor="middle" font-size="10" class="label">2401-2470</text>
  <text x="740" y="121" class="label">...</text>
  <rect x="766" y="96" width="88" height="40" rx="4" class="row"/>
  <text x="810" y="121" text-anchor="middle" font-size="10" class="label">n-210</text>
  <rect x="868" y="96" width="88" height="40" rx="4" class="row"/>
  <text x="912" y="121" text-anchor="middle" font-size="10" class="label">n</text>
  <text x="978" y="121" class="label">...</text>
  <rect x="143" y="89" width="583" height="54" rx="6" class="highlight"/>
  <line x1="298" y1="141" x2="298" y2="188" stroke="#891019" stroke-width="2" marker-end="url(#arrow)"/>

  <!-- ========== Section 2: lifecycle SQL ========== -->
  <text x="20" y="210" class="title">2. Lifecycle pattern (SQL statements)</text>
  <rect x="20" y="238" width="520" height="218" rx="6" class="sql-box"/>

  <!-- Step 1 -->
  <circle cx="38" cy="258" r="10" fill="#891019"/>
  <text x="38" y="262" text-anchor="middle" class="step-num">1</text>
  <text x="56" y="262" class="sql"><tspan class="sql-kw">DECLARE</tspan> c <tspan class="sql-kw">CURSOR FOR</tspan> &lt;select&gt;;</text>
  <text x="56" y="278" class="sql-sm">Defines query scope</text>

  <!-- Step 2 -->
  <circle cx="38" cy="300" r="10" fill="#891019"/>
  <text x="38" y="304" text-anchor="middle" class="step-num">2</text>
  <text x="56" y="304" class="sql"><tspan class="sql-kw">OPEN</tspan> c;</text>
  <text x="56" y="320" class="sql-sm">Before first row</text>

  <!-- Step 3 -->
  <circle cx="38" cy="342" r="10" fill="#891019"/>
  <text x="38" y="346" text-anchor="middle" class="step-num">3</text>
  <text x="56" y="346" class="sql"><tspan class="sql-kw">FETCH</tspan> ... <tspan class="sql-kw">FROM</tspan> c <tspan class="sql-kw">INTO</tspan> ...;</text>
  <text x="56" y="362" class="sql-sm">NEXT, PRIOR, ABSOLUTE...</text>

  <!-- Step 4-5 -->
  <circle cx="38" cy="384" r="10" fill="#891019"/>
  <text x="38" y="388" text-anchor="middle" class="step-num">4</text>
  <text x="56" y="388" class="sql"><tspan class="sql-kw">CLOSE</tspan> c;</text>
  <text x="56" y="404" class="sql-sm">Release resources</text>

  <circle cx="38" cy="426" r="10" fill="#891019"/>
  <text x="38" y="430" text-anchor="middle" class="step-num">5</text>
  <text x="56" y="430" class="sql"><tspan class="sql-kw">DEALLOCATE</tspan> c;  <tspan class="sql-sm">(some products)</tspan></text>
  <text x="56" y="446" class="sql-sm">Drop definition</text>

  <!-- Example block -->
  <rect x="280" y="248" width="248" height="198" rx="4" class="step-box"/>
  <text x="292" y="266" class="note-bold">Example</text>
  <text x="292" y="284" class="sql-sm"><tspan class="sql-kw">DECLARE</tspan> account_cur <tspan class="sql-kw">CURSOR FOR</tspan></text>
  <text x="300" y="300" class="sql-sm"><tspan class="sql-kw">SELECT</tspan> id, name <tspan class="sql-kw">FROM</tspan> accounts</text>
  <text x="300" y="316" class="sql-sm"><tspan class="sql-kw">WHERE</tspan> active <tspan class="sql-kw">ORDER BY</tspan> id;</text>
  <text x="292" y="336" class="sql-sm"><tspan class="sql-kw">OPEN</tspan> account_cur;</text>
  <text x="292" y="352" class="sql-sm"><tspan class="sql-kw">FETCH NEXT FROM</tspan> account_cur ...</text>
  <text x="292" y="368" class="sql-sm"><tspan class="sql-kw">CLOSE</tspan> account_cur;</text>

  <!-- ========== Section 3: access patterns ========== -->
  <text x="560" y="210" class="title">3. Access patterns (how you read rows)</text>
  <rect x="560" y="238" width="520" height="218" rx="6" class="access-box"/>

  <!-- Forward-only -->
  <text x="576" y="258" class="note-bold">Forward-only cursor (typical default)</text>
  <rect x="576" y="266" width="220" height="44" rx="4" fill="#e8f4ea" stroke="#3d7a4a"/>
  <text x="590" y="286" class="sql-sm"><tspan class="sql-kw">FETCH NEXT</tspan>  - one row forward</text>
  <text x="590" y="302" class="note">Most common in ETL / streaming loops</text>

  <!-- Scrollable list -->
  <text x="576" y="328" class="note-bold">Scrollable cursor (when supported)</text>
  <rect x="576" y="336" width="488" height="58" rx="4" class="step-box"/>
  <text x="588" y="354" class="sql-sm"><tspan class="sql-kw">FETCH NEXT</tspan> | <tspan class="sql-kw">PRIOR</tspan> | <tspan class="sql-kw">FIRST</tspan> | <tspan class="sql-kw">LAST</tspan></text>
  <text x="588" y="372" class="sql-sm"><tspan class="sql-kw">FETCH ABSOLUTE</tspan> n | <tspan class="sql-kw">FETCH RELATIVE</tspan> n</text>
  <text x="588" y="388" class="note">Jump relative to start or current position (product-dependent)</text>

  <!-- Mini scope visual -->
  <rect x="810" y="266" width="254" height="64" rx="4" class="scope-fill"/>
  <rect x="810" y="266" width="254" height="64" rx="4" class="highlight"/>
  <text x="937" y="282" text-anchor="middle" class="note-bold">position in scope</text>
  <rect x="818" y="292" width="40" height="26" rx="2" class="row-fetched"/>
  <text x="838" y="309" text-anchor="middle" font-size="8">0-99</text>
  <rect x="864" y="292" width="40" height="26" rx="2" class="row-fetched"/>
  <text x="884" y="309" text-anchor="middle" font-size="8">100-199</text>
  <text x="918" y="309" text-anchor="middle" font-size="9" class="label">...</text>
  <rect x="932" y="292" width="40" height="26" rx="2" class="row-active"/>
  <text x="952" y="309" text-anchor="middle" font-size="8">200-299</text>
  <rect x="978" y="292" width="40" height="26" rx="2" class="row-pending"/>
  <text x="998" y="309" text-anchor="middle" font-size="8">300+</text>
</svg>
