<?xml version="1.0" encoding="UTF-8"?>
<svg xmlns="http://www.w3.org/2000/svg" width="1100" height="680" viewBox="0 0 1100 680" font-family="Arial, Helvetica, sans-serif">
  <defs>
    <marker id="arrow" markerWidth="10" markerHeight="10" refX="8" refY="3" orient="auto">
      <path d="M0,0 L8,3 L0,6 Z" fill="#891019"/>
    </marker>
  </defs>
  <style>
    .label { font-size: 12px; fill: #444; }
    .title { font-size: 14px; font-weight: bold; fill: #891019; }
    .subtitle { font-size: 12px; fill: #666; font-style: italic; }
    .row { fill: #f5f5f5; stroke: #ccc; stroke-width: 1.5; }
    .row-active { fill: #fde8e8; stroke: #891019; stroke-width: 2; }
    .row-fetched { fill: #e8f4ea; stroke: #3d7a4a; stroke-width: 1.5; }
    .row-pending { fill: #eee; stroke: #bbb; stroke-width: 1.5; }
    .api-box { fill: #fafafa; stroke: #bbb; stroke-width: 1.5; }
    .panel-box { fill: #f9f9f9; stroke: #ccc; stroke-width: 1.5; }
    .access-box { fill: #fff8f8; stroke: #891019; stroke-width: 1.5; }
    .step-box { fill: #fafafa; stroke: #ddd; stroke-width: 1; }
    .api { font-family: Menlo, Consolas, monospace; font-size: 11px; fill: #222; }
    .api-sm { font-family: Menlo, Consolas, monospace; font-size: 10px; fill: #444; }
    .api-kw { fill: #891019; font-weight: bold; }
    .highlight { fill: none; stroke: #891019; stroke-width: 2.5; stroke-dasharray: 8 4; }
    .note { font-size: 11px; fill: #555; }
    .note-bold { font-size: 11px; fill: #891019; font-weight: bold; }
    .scope-fill { fill: #fff5f5; stroke: none; }
    .contrast-no { font-size: 10px; fill: #777; }
    .contrast-yes { font-size: 10px; fill: #891019; font-weight: bold; }
    .step-num { font-size: 11px; fill: #fff; font-weight: bold; }
  </style>

  <!-- Section 1: SOQL result set timeline -->
  <text x="20" y="56" class="title">1. One SOQL result set - position moves along rows</text>
  <line x1="50" y1="136" x2="1060" y2="136" stroke="#999" stroke-width="2"/>
  <rect x="50" y="96" width="88" height="40" rx="4" class="row"/>
  <text x="94" y="121" text-anchor="middle" font-size="10" class="label">1-87</text>
  <rect x="152" y="96" width="88" height="40" rx="4" class="row-fetched"/>
  <text x="196" y="121" text-anchor="middle" font-size="10" class="label">88-205</text>
  <rect x="254" y="96" width="88" height="40" rx="4" class="row-active"/>
  <text x="298" y="121" text-anchor="middle" font-size="10" class="label">206-298</text>
  <rect x="356" y="96" width="88" height="40" rx="4" class="row"/>
  <text x="400" y="121" text-anchor="middle" font-size="10" class="label">299-427</text>
  <text x="486" y="121" text-anchor="middle" class="label">...</text>
  <rect x="528" y="96" width="88" height="40" rx="4" class="row"/>
  <text x="572" y="121" text-anchor="middle" font-size="10" class="label">1201-1348</text>
  <rect x="630" y="96" width="88" height="40" rx="4" class="row"/>
  <text x="674" y="121" text-anchor="middle" font-size="10" class="label">2401-2470</text>
  <text x="740" y="121" class="label">...</text>
  <rect x="766" y="96" width="88" height="40" rx="4" class="row"/>
  <text x="810" y="121" text-anchor="middle" font-size="10" class="label">n-210</text>
  <rect x="868" y="96" width="88" height="40" rx="4" class="row"/>
  <text x="912" y="121" text-anchor="middle" font-size="10" class="label">n</text>
  <text x="978" y="121" class="label">...</text>
  <rect x="143" y="89" width="583" height="54" rx="6" class="highlight"/>
  <line x1="298" y1="141" x2="298" y2="188" stroke="#891019" stroke-width="2" marker-end="url(#arrow)"/>

  <!-- Section 2: Apex lifecycle -->
  <text x="20" y="210" class="title">2. Lifecycle pattern (Apex API)</text>
  <rect x="20" y="238" width="520" height="218" rx="6" class="api-box"/>

  <circle cx="38" cy="258" r="10" fill="#891019"/>
  <text x="38" y="262" text-anchor="middle" class="step-num">1</text>
  <text x="56" y="262" class="api"><tspan class="api-kw">Database.getCursor</tspan>(soql);</text>
  <text x="56" y="278" class="api-sm">Or PaginationCursor</text>

  <circle cx="38" cy="300" r="10" fill="#891019"/>
  <text x="38" y="304" text-anchor="middle" class="step-num">2</text>
  <text x="56" y="304" class="api">cursor.<tspan class="api-kw">getNumRecords</tspan>();</text>
  <text x="56" y="320" class="api-sm">Optional row count</text>

  <circle cx="38" cy="342" r="10" fill="#891019"/>
  <text x="38" y="346" text-anchor="middle" class="step-num">3</text>
  <text x="56" y="346" class="api">cursor.<tspan class="api-kw">fetch</tspan>(offset, count);</text>
  <text x="56" y="362" class="api-sm">Repeat until done</text>

  <circle cx="38" cy="384" r="10" fill="#891019"/>
  <text x="38" y="388" text-anchor="middle" class="step-num">4</text>
  <text x="56" y="388" class="api">Hold cursor: LWC or Cache</text>
  <text x="56" y="404" class="api-sm">Available across requests</text>

  <circle cx="38" cy="426" r="10" fill="#891019"/>
  <text x="38" y="430" text-anchor="middle" class="step-num">5</text>
  <text x="56" y="430" class="api-sm">Governed by Limits.*ApexCursor*</text>
  <text x="56" y="446" class="api-sm">Apex cursor limits</text>

  <rect x="280" y="248" width="248" height="198" rx="4" class="step-box"/>
  <text x="292" y="266" class="note-bold">Example (this repo)</text>
  <text x="292" y="284" class="api-sm">Database.Cursor c =</text>
  <text x="300" y="300" class="api-sm">  Database.getCursor(</text>
  <text x="308" y="316" class="api-sm">    'SELECT Id, Name FROM Account</text>
  <text x="308" y="332" class="api-sm">     WHERE Name LIKE 'TEST%'</text>
  <text x="308" y="348" class="api-sm">     ORDER BY Name',</text>
  <text x="300" y="364" class="api-sm">    AccessLevel.USER_MODE);</text>
  <text x="292" y="384" class="api-sm">List&lt;Account&gt; batch =</text>
  <text x="300" y="400" class="api-sm">  c.fetch(offset, pageSize);</text>

  <!-- Section 3: access patterns -->
  <text x="560" y="210" class="title">3. Access patterns (how you read rows)</text>
  <rect x="560" y="238" width="520" height="218" rx="6" class="access-box"/>

  <text x="576" y="258" class="note-bold">Database.Cursor</text>
  <rect x="576" y="266" width="248" height="44" rx="4" fill="#e8f4ea" stroke="#3d7a4a"/>
  <text x="590" y="286" class="api-sm"><tspan class="api-kw">fetch</tspan>(offset, count)</text>
  <text x="590" y="302" class="note">Forward by offset into scope (infinite scroll)</text>

  <text x="576" y="328" class="note-bold">Database.PaginationCursor</text>
  <rect x="576" y="336" width="248" height="44" rx="4" fill="#e8f4ea" stroke="#3d7a4a"/>
  <text x="590" y="356" class="api-sm"><tspan class="api-kw">fetchPage</tspan>(start, pageSize)</text>
  <text x="590" y="372" class="note">Page-oriented access; CursorFetchResult</text>

  <rect x="840" y="266" width="224" height="114" rx="4" class="scope-fill"/>
  <rect x="840" y="266" width="224" height="114" rx="4" class="highlight"/>
  <text x="952" y="282" text-anchor="middle" class="note-bold">position in scope</text>
  <rect x="848" y="292" width="40" height="26" rx="2" class="row-fetched"/>
  <text x="868" y="309" text-anchor="middle" font-size="8">0-99</text>
  <rect x="894" y="292" width="40" height="26" rx="2" class="row-fetched"/>
  <text x="914" y="309" text-anchor="middle" font-size="8">100-199</text>
  <text x="948" y="309" text-anchor="middle" font-size="9" class="label">...</text>
  <rect x="962" y="292" width="40" height="26" rx="2" class="row-active"/>
  <text x="982" y="309" text-anchor="middle" font-size="8">200-299</text>
  <text x="952" y="338" text-anchor="middle" class="note">fetch(200, 100) = rows 200-299</text>
</svg>
